<svg width="800" height="600" viewBox="0 0 800 600" fill="none" xmlns="http://www.w3.org/2000/svg">
  <rect width="800" height="600" rx="36" fill="#17100B"/>
  <rect x="32" y="32" width="736" height="536" rx="28" fill="#21160F" stroke="#5C4030" stroke-width="2"/>
  <path d="M245 330C245 256 300 198 371 198H430C481 198 523 240 523 291C523 342 481 384 430 384H371C300 384 245 404 245 330Z" fill="#3B2415" stroke="#C58A4A" stroke-width="8"/>
  <ellipse cx="390" cy="286" rx="82" ry="76" fill="#1A100A" stroke="#D2A06F" stroke-width="8"/>
  <ellipse cx="390" cy="286" rx="46" ry="42" fill="#0F0906"/>
  <path d="M505 304C585 310 637 330 690 374" stroke="#C58A4A" stroke-width="28" stroke-linecap="round"/>
  <path d="M676 364C707 385 727 403 744 424" stroke="#D2A06F" stroke-width="20" stroke-linecap="round"/>
  <path d="M273 203C230 156 194 120 148 98" stroke="#8C684A" stroke-width="8" stroke-linecap="round" opacity="0.45"/>
  <path d="M312 181C279 124 252 82 204 52" stroke="#8C684A" stroke-width="6" stroke-linecap="round" opacity="0.28"/>
  <path d="M359 170C344 116 333 72 294 38" stroke="#8C684A" stroke-width="5" stroke-linecap="round" opacity="0.2"/>
  <text x="400" y="472" text-anchor="middle" fill="#C58A4A" font-size="28" letter-spacing="10" font-family="Georgia, serif">PIPE CURATION</text>
  <text x="400" y="512" text-anchor="middle" fill="#B8A899" font-size="18" letter-spacing="4" font-family="Arial, sans-serif">PLACEHOLDER IMAGE</text>
</svg>
